<mxfile host="app.diagrams.net" modified="2024-07-15T00:14:48.214Z" agent="Mozilla/5.0 (X11; Linux x86_64) AppleWebKit/537.36 (KHTML, like Gecko) Chrome/126.0.0.0 Safari/537.36 Edg/126.0.0.0" etag="FXwvnZm2gtdkBSUYgXZf" version="24.6.5" type="device">
  <diagram name="Página-1" id="sw6syVSZTk-RiPqdlaIi">
    <mxGraphModel dx="786" dy="1944" grid="1" gridSize="10" guides="1" tooltips="1" connect="1" arrows="1" fold="1" page="1" pageScale="1" pageWidth="827" pageHeight="1169" math="0" shadow="0">
      <root>
        <mxCell id="0" />
        <mxCell id="1" parent="0" />
        <mxCell id="3Ybo9PqCDbXheoOx6Ozc-5" style="edgeStyle=orthogonalEdgeStyle;rounded=0;orthogonalLoop=1;jettySize=auto;html=1;entryX=0.5;entryY=1;entryDx=0;entryDy=0;" edge="1" parent="1" source="3Ybo9PqCDbXheoOx6Ozc-1" target="3Ybo9PqCDbXheoOx6Ozc-3">
          <mxGeometry relative="1" as="geometry" />
        </mxCell>
        <mxCell id="3Ybo9PqCDbXheoOx6Ozc-6" style="edgeStyle=orthogonalEdgeStyle;rounded=0;orthogonalLoop=1;jettySize=auto;html=1;entryX=0.5;entryY=1;entryDx=0;entryDy=0;" edge="1" parent="1" source="3Ybo9PqCDbXheoOx6Ozc-1" target="3Ybo9PqCDbXheoOx6Ozc-2">
          <mxGeometry relative="1" as="geometry" />
        </mxCell>
        <mxCell id="3Ybo9PqCDbXheoOx6Ozc-7" style="edgeStyle=orthogonalEdgeStyle;rounded=0;orthogonalLoop=1;jettySize=auto;html=1;entryX=0.5;entryY=1;entryDx=0;entryDy=0;" edge="1" parent="1" source="3Ybo9PqCDbXheoOx6Ozc-1" target="3Ybo9PqCDbXheoOx6Ozc-4">
          <mxGeometry relative="1" as="geometry" />
        </mxCell>
        <mxCell id="3Ybo9PqCDbXheoOx6Ozc-9" style="edgeStyle=orthogonalEdgeStyle;rounded=0;orthogonalLoop=1;jettySize=auto;html=1;entryX=0.5;entryY=1;entryDx=0;entryDy=0;" edge="1" parent="1" source="3Ybo9PqCDbXheoOx6Ozc-1" target="3Ybo9PqCDbXheoOx6Ozc-8">
          <mxGeometry relative="1" as="geometry" />
        </mxCell>
        <mxCell id="3Ybo9PqCDbXheoOx6Ozc-1" value="Magento&lt;div&gt;loja&lt;/div&gt;" style="whiteSpace=wrap;html=1;aspect=fixed;" vertex="1" parent="1">
          <mxGeometry x="420" y="320" width="80" height="80" as="geometry" />
        </mxCell>
        <mxCell id="3Ybo9PqCDbXheoOx6Ozc-2" value="Elasticsearch" style="whiteSpace=wrap;html=1;aspect=fixed;" vertex="1" parent="1">
          <mxGeometry x="360" y="120" width="80" height="80" as="geometry" />
        </mxCell>
        <mxCell id="3Ybo9PqCDbXheoOx6Ozc-3" value="Redis" style="whiteSpace=wrap;html=1;aspect=fixed;" vertex="1" parent="1">
          <mxGeometry x="240" y="120" width="80" height="80" as="geometry" />
        </mxCell>
        <mxCell id="3Ybo9PqCDbXheoOx6Ozc-4" value="RabbitMQ" style="whiteSpace=wrap;html=1;aspect=fixed;" vertex="1" parent="1">
          <mxGeometry x="600" y="120" width="80" height="80" as="geometry" />
        </mxCell>
        <mxCell id="3Ybo9PqCDbXheoOx6Ozc-8" value="MySQL" style="whiteSpace=wrap;html=1;aspect=fixed;" vertex="1" parent="1">
          <mxGeometry x="480" y="120" width="80" height="80" as="geometry" />
        </mxCell>
        <mxCell id="3Ybo9PqCDbXheoOx6Ozc-12" value="" style="edgeStyle=orthogonalEdgeStyle;rounded=0;orthogonalLoop=1;jettySize=auto;html=1;" edge="1" parent="1" source="3Ybo9PqCDbXheoOx6Ozc-10" target="3Ybo9PqCDbXheoOx6Ozc-8">
          <mxGeometry relative="1" as="geometry" />
        </mxCell>
        <mxCell id="3Ybo9PqCDbXheoOx6Ozc-10" value="Magento&lt;div&gt;Administração&lt;/div&gt;" style="whiteSpace=wrap;html=1;aspect=fixed;" vertex="1" parent="1">
          <mxGeometry x="480" y="-40" width="80" height="80" as="geometry" />
        </mxCell>
      </root>
    </mxGraphModel>
  </diagram>
</mxfile>
